<svg xmlns="http://www.w3.org/2000/svg" xmlns:xlink="http://www.w3.org/1999/xlink" width="500" zoomAndPan="magnify" viewBox="0 0 375 374.999991" height="500" preserveAspectRatio="xMidYMid meet" version="1.0"><path fill="#000000" d="M 81.003906 305.175781 C 80.40625 302.417969 80.628906 296.820312 80.035156 294.285156 C 79.4375 291.898438 79.511719 289.511719 79.140625 287.199219 C 78.617188 283.992188 95.3125 272.578125 99.785156 266.089844 C 105.824219 257.285156 111.042969 252.808594 98.222656 240.351562 C 92.480469 234.757812 86.59375 228.566406 80.257812 223.792969 C 79.886719 223.566406 79.734375 223.121094 79.4375 222.820312 C 77.425781 220.582031 71.6875 216.035156 69.523438 213.644531 C 59.984375 203.277344 60.804688 202.90625 62.816406 200.144531 C 65.722656 196.042969 64.007812 189.328125 64.007812 189.105469 C 64.15625 187.089844 64.15625 187.089844 62.367188 186.34375 C 61.472656 185.972656 60.65625 186.195312 61.027344 184.925781 C 61.027344 184.925781 60.730469 178.0625 60.953125 173.8125 C 61.101562 170.679688 60.65625 168.140625 63.113281 167.769531 C 67.066406 167.171875 68.332031 169.707031 72.953125 167.46875 C 73.847656 167.023438 74.816406 166.875 75.5625 166.277344 C 80.109375 162.921875 81.597656 157.550781 77.425781 150.386719 C 69.824219 137.40625 63.785156 123.609375 57.078125 110.179688 C 51.710938 99.4375 51.113281 98.765625 51.113281 98.765625 C 50.292969 97.050781 51.488281 95.335938 48.953125 92.203125 C 48.058594 91.15625 48.28125 89.964844 49.625 89.589844 C 51.039062 89.21875 51.933594 88.25 52.753906 87.128906 C 54.320312 85.117188 53.871094 86.757812 57.523438 82.878906 C 59.609375 80.714844 61.996094 83.027344 64.753906 80.414062 C 66.46875 78.847656 65.722656 75.941406 66.765625 75.640625 C 69.597656 74.96875 71.164062 79.667969 71.835938 81.011719 C 73.25 83.699219 75.113281 86.085938 76.753906 88.546875 C 78.320312 90.859375 80.035156 96.453125 82.269531 93.695312 C 87.488281 87.429688 87.5625 81.085938 87.113281 73.328125 C 86.890625 69.824219 76.53125 57.886719 79.660156 53.410156 C 81.597656 50.652344 89.574219 42 91.214844 39.910156 C 92.183594 38.714844 91.734375 37.820312 90.765625 36.328125 C 85.027344 27.75 68.855469 20.066406 67.4375 16.710938 C 66.765625 15.070312 65.5 13.875 64.753906 12.308594 C 61.921875 6.566406 60.878906 7.011719 59.6875 5.074219 C 58.34375 2.984375 57.300781 6.414062 45.152344 11.113281 C 41.574219 12.457031 35.3125 4.253906 25.472656 1.789062 C 23.832031 1.417969 15.261719 0 15.484375 3.058594 C 15.710938 6.191406 27.710938 20.363281 31.0625 26.332031 C 32.332031 28.570312 29.722656 28.945312 25.621094 34.6875 C 17.5 45.953125 17.199219 59.15625 17.125 59.378906 C 12.578125 67.136719 13.027344 62.960938 7.359375 76.238281 C 4.527344 82.878906 4.082031 104.957031 4.527344 110.179688 C 5.574219 122.488281 7.585938 123.757812 9.300781 137.558594 C 11.011719 151.132812 9.597656 167.621094 9.375 176.273438 C 9.300781 178.882812 8.851562 183.359375 9.449219 184.925781 C 10.117188 186.714844 12.503906 187.910156 12.726562 190.671875 C 12.953125 193.132812 13.621094 194.921875 13.25 197.382812 C 12.726562 201.113281 11.011719 204.546875 10.863281 208.273438 C 10.34375 228.640625 31.808594 240.5 35.984375 254.375 C 40.679688 270.191406 43.734375 273.472656 39.484375 275.339844 C 36.953125 276.457031 25.695312 282.796875 22.34375 283.84375 C 14.964844 286.15625 3.933594 286.15625 0.355469 305.550781 C 0.132812 306.519531 0.503906 307.5625 0.429688 308.609375 C 0.355469 309.652344 2.070312 309.355469 3.113281 309.429688 C 6.09375 309.652344 6.988281 314.054688 3.785156 316.21875 C 2.890625 316.8125 2.367188 317.785156 1.472656 318.457031 C 0.949219 318.828125 0.800781 319.425781 0.875 320.171875 C 2.441406 328.675781 3.410156 338.296875 6.316406 346.503906 C 8.703125 353.070312 13.996094 346.953125 14.664062 342.625 C 15.484375 337.253906 13.546875 331.808594 15.859375 326.585938 C 16.828125 324.421875 20.554688 317.933594 23.386719 318.15625 C 28.15625 318.605469 42.242188 309.207031 45.972656 308.683594 C 46.417969 307.640625 47.460938 307.9375 48.28125 307.640625 C 48.730469 307.488281 49.027344 307.714844 49.101562 308.234375 C 49.324219 310.472656 52.007812 317.632812 52.605469 321.515625 C 53.125 325.09375 58.417969 354.558594 58.417969 354.558594 C 58.34375 357.84375 54.171875 363.585938 61.699219 372.238281 C 62.742188 373.433594 64.082031 372.910156 71.535156 373.058594 C 72.132812 373.058594 72.582031 372.613281 73.25 372.761719 C 73.398438 372.761719 73.699219 372.464844 73.699219 372.390625 C 73.324219 371.34375 74.371094 370.597656 74.445312 369.628906 C 74.519531 368.882812 74.964844 368.808594 75.636719 368.660156 C 78.320312 368.0625 79.660156 369.925781 81.152344 371.492188 C 84.355469 374.851562 87.785156 373.957031 92.332031 374.03125 C 106.046875 374.253906 107.164062 375 112.605469 371.046875 C 114.023438 370 114.617188 366.570312 111.9375 365.75 C 108.878906 364.78125 92.628906 361.648438 88.457031 353.964844 C 85.027344 347.546875 86.964844 356.871094 83.089844 322.410156 C 82.195312 316.738281 82.121094 310.773438 81.003906 305.175781 Z M 81.003906 305.175781 " fill-opacity="1" fill-rule="nonzero"/></svg>